<svg id="Layer_3" data-name="Layer 3" xmlns="http://www.w3.org/2000/svg" viewBox="0 0 1920 1080">
    <defs>
        <style>.cls-1{fill:#1b264f;}.cls-2{fill:#152042;}.cls-3{fill:#121c3d;}.cls-4{fill:#f5f5f5;}</style>
    </defs>
    <rect class="cls-1" width="1920" height="1080"/>
    <path class="cls-2" d="M-1009-427s14.29,320.53,0,489c-9,105.94,524.56,917.94,774,748C-52.67,685.69,111.17,588,138.43,641.14c57.39,111.86,40.31,334,404.38,345.43,256.47,8.07,382.76-99.72,537.79-139.6,192.69-49.57,482.34,147.27,534.92,0,19.23-53.89,22.77-186,110.66-195.72,322-35.57,447.57-462.6,335.82-636.25-276.56-429.74-75.61-261.72-132-354-82-134.2-1554.54-58.75-1631.42-63.91C206.09-409.11-1009-427-1009-427Z"/>
    <path class="cls-3" d="M1706-816.64s-36.64,318.75-34.15,487.81C1673.42-222.52,1328,200,1044,205c-220.61,3.88-412-120-557.22-36.25C377.86,231.57,423.24,499.09,59.26,485.1c-256.41-9.86-374.87-126.21-526.73-176.82-188.75-62.9-491.45,113.23-533.61-37.36-15.43-55.1-9.72-187.14-96.72-203C-1416.5,10-1512-424.78-1388.37-590.2c305.9-409.38,93.7-255.8,156.4-343.92,91.19-128.14,1554.85,50,1631.91,50.19C492.63-883.66,1706-816.64,1706-816.64Z"/>
    <g id="White_Version" data-name="White Version">
        <path class="cls-4" d="M1528.11,761.9s-102,31.58-54.79,124.9,188,63.15,220.46,2.8S1662.71,704.63,1528.11,761.9ZM1561.53,907c-30.94-7.74-37.51-95.11-37.51-95.11l16.43-4s8.37,29.26,12.43,45,9.51,27.55,26.86,30.63,29.5-15.43,28.88-30.86-11-58.58-11-58.58l19.61-4.74s15.84,39.78,17.5,72.45S1592.47,914.78,1561.53,907Z"/>
        <path class="cls-4" d="M1730.06,974.34s-24.4,1.11-36.67-14.5-4.46-21.19,5-24,13.94-7.25,21.19-12.83,19.52-9.48,31.22,3.9,14.5,7.81,24,9.48,14.5,4.46,13.38,12.83S1771.2,976,1730.06,974.34Z"/>
        <path class="cls-4" d="M1027.4,991s-27.37,1.25-41.13-16.27-5-23.76,5.63-26.89,15.64-8.13,23.77-14.38,21.89-10.64,35,4.37,16.26,8.76,26.89,10.64,16.27,5,15,14.38S1073.54,992.83,1027.4,991Z"/>
        <path class="cls-4" d="M1766.21,759.81s-34.5,1.58-51.84-20.5-6.31-29.95,7.09-33.89,19.71-10.25,30-18.13,27.59-13.4,44.14,5.52,20.5,11,33.9,13.4,20.49,6.3,18.92,18.13S1824.35,762.17,1766.21,759.81Z"/>
        <path class="cls-4" d="M1418.3,896.71l-.41-.08c2.62-10.45-9.7-25.22-20.24-35.69-15.61-15.49-7.14-22.5-24.4-45s-28.24,12.4-35,27.27-5.17,21-20.29,10.76-25.39,10.35-32.4,33.26c-3.32,10.83.21,17.25,4.84,21l11.87,13.62,52.38,12.27L1403,920.3l12.13-18.71a11.19,11.19,0,0,0,2.3-3.55Z"/>
    </g>
</svg>