<svg width="143" height="30" xmlns="http://www.w3.org/2000/svg">
  <g fill="#FFF" fill-rule="evenodd">
    <path d="M139.465 19.741c.454 0 .853-.116 1.195-.35.342-.233.657-.562.945-.988V14.12c-.256-.385-.537-.654-.843-.809a2.22 2.22 0 0 0-1.015-.232c-.742 0-1.312.295-1.709.883-.397.59-.596 1.428-.596 2.518 0 .577.045 1.071.134 1.482.088.41.22.749.392 1.014.172.265.384.46.634.581.251.123.539.184.863.184zm2.704 1.137c-.199 0-.324-.108-.376-.324l-.126-1.075c-.34.46-.727.829-1.164 1.106a2.742 2.742 0 0 1-1.5.415c-.455 0-.868-.098-1.24-.293a2.645 2.645 0 0 1-.948-.861c-.261-.379-.462-.85-.603-1.416-.141-.566-.212-1.215-.212-1.95 0-.653.078-1.26.235-1.823.157-.562.383-1.05.678-1.464a3.273 3.273 0 0 1 1.078-.975 2.91 2.91 0 0 1 1.442-.354c.486 0 .902.092 1.247.276.345.183.653.441.925.773V8H143v12.878h-.83zM128.478 12v5.65c0 .67.147 1.19.44 1.557.294.367.736.551 1.329.551.432 0 .838-.108 1.22-.324a3.84 3.84 0 0 0 1.055-.9V12H134v8.86h-.88c-.21 0-.343-.108-.399-.324l-.116-.953a4.673 4.673 0 0 1-1.229 1.028c-.454.26-.974.389-1.561.389-.46 0-.865-.08-1.217-.24a2.42 2.42 0 0 1-.884-.678 2.928 2.928 0 0 1-.535-1.059A4.957 4.957 0 0 1 127 17.65V12h1.478zm-7.47 7.8c.829 0 1.447-.289 1.855-.867.409-.578.613-1.385.613-2.42 0-1.041-.204-1.852-.613-2.433-.408-.581-1.026-.872-1.855-.872-.42 0-.784.075-1.093.224-.31.15-.567.366-.774.648a2.93 2.93 0 0 0-.464 1.04 5.794 5.794 0 0 0-.153 1.393c0 .518.05.98.153 1.39.102.408.257.751.464 1.03.207.28.465.494.774.643.31.15.674.225 1.093.225zm0-7.8c.613 0 1.167.106 1.66.32.495.212.914.514 1.26.905.345.392.61.865.795 1.42.185.555.277 1.175.277 1.86 0 .69-.092 1.31-.277 1.863a4.061 4.061 0 0 1-.795 1.415 3.457 3.457 0 0 1-1.26.902 4.208 4.208 0 0 1-1.66.315 4.207 4.207 0 0 1-1.66-.315 3.494 3.494 0 0 1-1.263-.902 4.07 4.07 0 0 1-.803-1.415c-.188-.552-.282-1.173-.282-1.864 0-.684.094-1.304.282-1.86a4.066 4.066 0 0 1 .803-1.419 3.542 3.542 0 0 1 1.263-.906 4.158 4.158 0 0 1 1.66-.319zM114 21V8h1v13h-1zm-2.495-7.309a.685.685 0 0 1-.136.147.32.32 0 0 1-.196.052.483.483 0 0 1-.277-.108 4.027 4.027 0 0 0-.38-.237 3.169 3.169 0 0 0-.558-.238 2.608 2.608 0 0 0-.806-.108c-.42 0-.793.077-1.117.23a2.172 2.172 0 0 0-.814.66 3.003 3.003 0 0 0-.494 1.043 5.24 5.24 0 0 0-.167 1.372c0 .53.06 1 .18 1.411.119.412.286.757.502 1.036.216.279.48.491.79.638.309.147.657.22 1.043.22.37 0 .674-.044.913-.134.239-.089.437-.188.597-.297.159-.11.29-.209.392-.298a.47.47 0 0 1 .307-.134c.13 0 .227.05.29.147l.426.56a3.283 3.283 0 0 1-1.407 1.023 4.935 4.935 0 0 1-1.782.324c-.54 0-1.041-.1-1.505-.302a3.43 3.43 0 0 1-1.206-.876 4.167 4.167 0 0 1-.806-1.41c-.196-.559-.294-1.194-.294-1.908 0-.65.09-1.25.269-1.803a4.1 4.1 0 0 1 .784-1.428c.344-.4.769-.712 1.275-.936.505-.225 1.085-.337 1.739-.337.602 0 1.137.1 1.603.298.466.198.878.479 1.236.841l-.4.552zM99.218 16.5c0-1.84-.22-2.885-1.717-2.885s-1.72 1.049-1.72 2.885c0 1.836.223 2.885 1.72 2.885 1.498 0 1.717-1.051 1.717-2.885zM94 16.5c0-2.644.694-4.5 3.501-4.5 2.808 0 3.499 1.856 3.499 4.5s-.694 4.5-3.499 4.5C94.697 21 94 19.144 94 16.5zm-2.314 2.507a.234.234 0 0 1 .072 0 .25.25 0 0 1 .242.255v1.14a.26.26 0 0 1-.148.236 5.546 5.546 0 0 1-2.09.36c-2.875 0-3.762-1.82-3.762-4.498 0-2.676.879-4.498 3.762-4.498a5.52 5.52 0 0 1 2.077.347c.091.04.151.134.15.238v1.137a.25.25 0 0 1-.242.256.274.274 0 0 1-.078 0 5.291 5.291 0 0 0-1.808-.284c-1.574 0-2.031 1.136-2.031 2.799 0 1.662.457 2.799 2.031 2.799a5.299 5.299 0 0 0 1.811-.284l.014-.003zm-9.132 1.103c-.74.58-1.655.893-2.596.89C77.738 21 77 19.63 77 18.258c0-1.852 1.204-2.64 3.148-2.793l1.928-.153v-.428c0-.874-.413-1.217-1.686-1.217-.799 0-1.592.132-2.348.392a.25.25 0 0 1-.08 0 .256.256 0 0 1-.256-.256V12.67a.255.255 0 0 1 .165-.24A8.267 8.267 0 0 1 80.527 12C83.348 12 84 13.233 84 15.051v5.467c0 .14-.115.255-.256.255h-.715a.25.25 0 0 1-.222-.13l-.253-.533zm-2.277-3.273c-.854.103-1.361.426-1.361 1.319 0 .652.284 1.267 1.324 1.267a3.174 3.174 0 0 0 1.841-.567V16.64l-1.804.198zm-4.535-3.117a4.507 4.507 0 0 0-.66-.044 4.033 4.033 0 0 0-2.173.527v6.535a.258.258 0 0 1-.253.262h-1.403a.258.258 0 0 1-.253-.262V12.46c0-.145.113-.262.253-.262h.704c.091 0 .175.051.22.134l.246.582a4.198 4.198 0 0 1 2.681-.914c.223 0 .446.02.666.058.129 0 .23.218.23.358v1.055a.258.258 0 0 1-.253.262h-.02l.015-.014zm-11.286 5.675h.002c1.536 0 1.77-1.266 1.77-2.82 0-1.555-.236-2.821-1.772-2.821a3.16 3.16 0 0 0-1.692.49v4.662a3.16 3.16 0 0 0 1.692.489zm-2.13.727l-.239.548a.224.224 0 0 1-.202.128h-.651c-.13 0-.234-.113-.234-.251V10.254v-.002c0-.14.105-.252.234-.252h1.299c.13.002.233.115.231.254v2.555a3.774 3.774 0 0 1 2.102-.66c2.288 0 3.134 1.655 3.134 4.425 0 2.77-.843 4.425-3.134 4.425a3.953 3.953 0 0 1-2.54-.877zm-4.342-5.328L58 20.735c0 .145-.106.262-.238.262h-1.32c-.13 0-.237-.117-.237-.262v-5.94c0-.835-.43-1.126-1.133-1.126a2.898 2.898 0 0 0-1.676.515v6.554c0 .145-.106.262-.237.262h-1.32c-.131 0-.238-.117-.238-.262v-5.94c0-.835-.414-1.126-1.132-1.126a2.993 2.993 0 0 0-1.674.509v6.54c0 .144-.106.262-.238.262h-1.32c-.13 0-.237-.118-.237-.262v-8.262c0-.144.106-.261.238-.261h.665c.085 0 .164.051.206.134l.232.581A3.905 3.905 0 0 1 50.748 12c1.07 0 1.708.329 2.044.872A4.27 4.27 0 0 1 55.344 12c1.89 0 2.64 1.125 2.64 2.794zm-15.14 5.863l-.028.011-.246-.582a4.633 4.633 0 0 1-2.702.914C37.75 21 37 19.894 37 18.207v-5.948c0-.143.11-.259.246-.259h1.38c.137 0 .248.117.248.262v5.77c0 .896.434 1.3 1.317 1.3a3.626 3.626 0 0 0 1.932-.509v-6.561c0-.145.111-.262.248-.262h1.38c.138 0 .249.117.249.262v8.267a.255.255 0 0 1-.248.261h-.693a.241.241 0 0 1-.216-.133zM14.688 20.32a15.199 15.199 0 0 1-3.54-.315 2.7 2.7 0 0 1-1.932-1.537c-.347-.788-.515-2.005-.506-3.65.007-.86.062-1.718.164-2.572.1-.83.2-1.516.3-2.055l.104-.536a.279.279 0 0 0 0-.047.308.308 0 0 0-.257-.304L7.045 9h-.042a.31.31 0 0 0-.302.237 7.172 7.172 0 0 0-.113.516 34.138 34.138 0 0 0-.333 1.952 25.062 25.062 0 0 0-.223 2.677 13.7 13.7 0 0 0 0 1.874c.047 1.657.335 2.98.864 3.969.528.989 1.424 1.701 2.687 2.136 1.262.435 3.021.648 5.277.639h.282c2.258.009 4.017-.204 5.275-.639 1.259-.435 2.155-1.147 2.687-2.136.529-.991.817-2.314.864-3.969a13.62 13.62 0 0 0 0-1.874c-.027-.895-.101-1.789-.223-2.677a37.413 37.413 0 0 0-.333-1.952 7.203 7.203 0 0 0-.113-.516.31.31 0 0 0-.302-.237h-.05l-1.977.304a.308.308 0 0 0-.26.304.317.317 0 0 0 0 .047l.105.536c.1.54.2 1.226.302 2.055.102.854.155 1.712.161 2.571.017 1.642-.151 2.858-.505 3.648a2.7 2.7 0 0 1-1.916 1.54c-1.162.242-2.35.348-3.537.315h-.632zM0 14.98C.01 6.697 6.735-.01 15.02 0 23.303.01 30.01 6.735 30 15.02 29.99 23.295 23.277 30 15 30 6.711 29.995-.005 23.272 0 14.983v-.002z"/>
  </g>
</svg>